<svg xmlns="http://www.w3.org/2000/svg" xmlns:xlink="http://www.w3.org/1999/xlink" fill="none" version="1.1" width="84" height="100" viewBox="0 0 84 100"><g><path d="M18,0C8.05888,0,0,8.05888,0,18L0,82C0,91.9411,8.05888,100,18,100L59,100L59,55.3004L64.7917,61.0944C62.2158,67.1689,66.1257,74.029,72.6651,74.9084C79.2044,75.7879,84.7879,70.2045,83.9084,63.6653C83.029,57.1262,76.1687,53.2163,70.094,55.7922L64.3017,50L64.2992,50L70.094,44.2078C76.1687,46.7837,83.0289,42.8738,83.9084,36.3346C84.7879,29.7955,79.2044,24.2121,72.6651,25.0916C66.1257,25.971,62.2158,32.8311,64.7917,38.9056L59,44.6966L59,0L18,0ZM59,44.6966L34.225,69.469L35.9924,71.2364C37.9452,73.1899,41.112,73.1899,43.0648,71.2364L58.9993,55.2997L59,55.3004L59,44.6966ZM34.225,30.5285L50.1621,46.4677L50.1646,46.4677L55.4644,41.163L43.0648,28.7611C41.112,26.8076,37.9452,26.8076,35.9925,28.7611L34.225,30.5285ZM68.9991,35.0008C68.9991,32.2395,71.2376,30.001,73.9989,30.001C76.7603,30.001,78.9988,32.2395,78.9988,35.0008C78.9988,37.7621,76.7603,40.0005,73.9989,40.0005C71.2376,40.0005,68.9991,37.7621,68.9991,35.0008ZM34,52.4999L38.9999,52.4999L38.9999,47.5001L34,47.5001L34,52.4999ZM43.9997,52.4999L48.9996,52.4999L48.9996,47.5001L43.9997,47.5001L43.9997,52.4999ZM68.9991,52.4999L73.9989,52.4999L73.9989,47.5001L68.9991,47.5001L68.9991,52.4999ZM78.9988,52.4999L83.9987,52.4999L83.9987,47.5001L78.9988,47.5001L78.9988,52.4999ZM68.9991,64.9992C68.9991,62.2379,71.2376,59.9995,73.9989,59.9995C76.7603,59.9995,78.9988,62.2379,78.9988,64.9992C78.9988,67.7605,76.7603,69.9989,73.9989,69.9989C71.2376,69.9989,68.9991,67.7605,68.9991,64.9992Z" fill-rule="evenodd" fill="#F3F3F3" fill-opacity="1"/></g></svg>