<svg xmlns="http://www.w3.org/2000/svg" xmlns:xlink="http://www.w3.org/1999/xlink" fill="none" version="1.1" width="97" height="97" viewBox="0 0 97 97"><g><g><path d="M0,51.5455C0,76.6493,20.4436,97,45.6621,97C70.8806,97,91,76.1038,91,51L45,51L45,6C19.7815,6,0,26.4416,0,51.5455Z" fill="#F3F3F3" fill-opacity="1"/><path d="M45,6L45,51L91,51C91,53.7233,90.7632,56.3971,90.3089,59C86.5749,80.3916,68.1449,97,45.6621,97C20.4436,97,0,76.6493,0,51.5455C0,29.166,15.721,10.49173,37,6.702084C39.5904,6.240751,42.2632,6,45,6ZM45,59L82.2283,59Q80.0957,69.6168,72.07,77.8189Q61.1294,89,45.6621,89Q30.0513,89,19.0181,78.017Q8,67.049,8,51.5455Q8,35.9152,18.7518,24.9633Q26.6155,16.953200000000002,37,14.79553L37,51Q37,51.1964,37.0096,51.3925Q37.0193,51.5887,37.0385,51.7841Q37.0578,51.9796,37.0866,52.1738Q37.1154,52.3681,37.1537,52.5607Q37.192,52.7533,37.2397,52.9438Q37.2875,53.1343,37.3445,53.3223Q37.4015,53.5102,37.4676,53.6951Q37.5338,53.88,37.609,54.0615Q37.6841,54.2429,37.7681,54.4204Q37.8521,54.598,37.9446,54.7712Q38.0372,54.9444,38.1382,55.1128Q38.2391,55.2813,38.3482,55.4445Q38.4573,55.6078,38.5743,55.7656Q38.6913,55.9233,38.8159,56.0751Q38.9405,56.227,39.0724,56.3725Q39.2043,56.518,39.3431,56.6568Q39.482,56.7957,39.6275,56.9276Q39.773,57.0595,39.9248,57.1841Q40.0767,57.3087,40.2344,57.4257Q40.3921,57.5426,40.5554,57.6517Q40.7187,57.7609,40.8872,57.8618Q41.0556,57.9628,41.2288,58.0554Q41.402,58.1479,41.5795,58.2319Q41.7571,58.3159,41.9385,58.391Q42.12,58.4662,42.3049,58.5323Q42.4898,58.5985,42.6777,58.6555Q42.8657,58.7125,43.0561,58.7602Q43.2467,58.808,43.4393,58.8463Q43.6319,58.8846,43.8262,58.9134Q44.0204,58.9422,44.2159,58.9615Q44.4113,58.9807,44.6075,58.9904Q44.8036,59,45,59Z" fill-rule="evenodd" fill="#F0F0F0" fill-opacity="0.800000011920929"/></g><g transform="matrix(0,1,-1,0,97,-91)"><path d="" fill="#D8D8D8" fill-opacity="1"/><path d="M110.0073,19.4427Q123.0731,6,142,6L142,0Q120.5377,0,105.7047,15.2608Q91.00001,30.3897,91,52L97,52Q97,32.8251,110.0073,19.4427Z" fill-rule="evenodd" fill="#F3F3F3" fill-opacity="1"/></g><g transform="matrix(0,1,-1,0,97,-45)"><path d="" fill="#D8D8D8" fill-opacity="1"/><path d="M81.8343,37.0667Q87.6223,31,96,31L96,21Q83.3417,21,74.59899,30.16378Q66,39.1769,66,52L76,52Q76,43.182,81.8343,37.0667Z" fill-rule="evenodd" fill="#F3F3F3" fill-opacity="1"/></g></g></svg>